#Comment line ignore any data following # character 
#Hierarchical Translation and Rotation (.htr) file 
[Header]	
#Header keywords are followed by a single value 
FileType HTR		#Single word string
DataType HTRS		#Translation followed by rotation and scale data
FileVersion 1		#integer
NumSegments 25		#integer
NumFrames 4		#integer
DataFrameRate 30		#integer, data frame rate in this file
EulerRotationOrder ZYX
CalibrationUnits mm
RotationUnits Degrees
GlobalAxisofGravity Y
BoneLengthAxis Y
ScaleFactor 1.00
[SegmentNames&Hierarchy]
#CHILD	PARENT
BN_Tick_Root GLOBAL
BN_Torso BN_Tick_Root
BN_L_Leg_Front01 BN_Torso
BN_L_Leg_Rear01 BN_Torso
BN_MetalTop BN_Torso
BN_Neck BN_Torso
BN_R_Leg_Front01 BN_Torso
BN_R_Leg_Rear01 BN_Torso
BN_Sack BN_Torso
BN_L_Leg_Front02 BN_L_Leg_Front01
BN_L_Leg_Front03 BN_L_Leg_Front02
BN_L_Leg_Rear02 BN_L_Leg_Rear01
BN_L_Leg_Rear03 BN_L_Leg_Rear02
BN_Head BN_Neck
BN_Needle BN_Head
BN_R_Leg_Front02 BN_R_Leg_Front01
BN_R_Leg_Front03 BN_R_Leg_Front02
BN_R_Leg_Rear02 BN_R_Leg_Rear01
BN_R_Leg_Rear03 BN_R_Leg_Rear02
BN_SackDef01 BN_Sack
BN_SackDef02 BN_Sack
BN_SackDef03 BN_Sack
BN_SackDef04 BN_Sack
BN_SackDef05 BN_Sack
BN_SackDef06 BN_Sack
[BasePosition]
#SegmentName Tx, Ty, Tz, Rx, Ry, Rz, BoneLength
BN_Tick_Root 0.000000 0.000000 0.000000 -90.000000 0.000000 0.000000 10.000000 
BN_Torso 0.000000 0.000000 0.000000 0.000000 0.000000 0.000000 10.000000 
BN_L_Leg_Front01 0.000000 0.000000 0.000000 0.000000 0.000000 0.000000 10.000000 
BN_L_Leg_Rear01 0.000000 0.000000 0.000000 0.000000 0.000000 0.000000 10.000000 
BN_MetalTop 0.000000 0.000000 0.000000 0.000000 0.000000 0.000000 10.000000 
BN_Neck 0.000000 0.000000 0.000000 0.000000 0.000000 0.000000 10.000000 
BN_R_Leg_Front01 0.000000 0.000000 0.000000 0.000000 0.000000 0.000000 10.000000 
BN_R_Leg_Rear01 0.000000 0.000000 0.000000 0.000000 0.000000 0.000000 10.000000 
BN_Sack 0.000000 0.000000 0.000000 0.000000 0.000000 0.000000 10.000000 
BN_L_Leg_Front02 0.000000 0.000000 0.000000 0.000000 0.000000 0.000000 10.000000 
BN_L_Leg_Front03 0.000000 0.000000 0.000000 0.000000 0.000000 0.000000 10.000000 
BN_L_Leg_Rear02 0.000000 0.000000 0.000000 0.000000 0.000000 0.000000 10.000000 
BN_L_Leg_Rear03 0.000000 0.000000 0.000000 0.000000 0.000000 0.000000 10.000000 
BN_Head 0.000000 0.000000 0.000000 0.000000 0.000000 0.000000 10.000000 
BN_Needle 0.000000 0.000000 0.000000 0.000000 0.000000 0.000000 10.000000 
BN_R_Leg_Front02 0.000000 0.000000 0.000000 0.000000 0.000000 0.000000 10.000000 
BN_R_Leg_Front03 0.000000 0.000000 0.000000 0.000000 0.000000 0.000000 10.000000 
BN_R_Leg_Rear02 0.000000 0.000000 0.000000 0.000000 0.000000 0.000000 10.000000 
BN_R_Leg_Rear03 0.000000 0.000000 0.000000 0.000000 0.000000 0.000000 10.000000 
BN_SackDef01 0.000000 0.000000 0.000000 0.000000 0.000000 0.000000 10.000000 
BN_SackDef02 0.000000 0.000000 0.000000 0.000000 0.000000 0.000000 10.000000 
BN_SackDef03 0.000000 0.000000 0.000000 0.000000 0.000000 0.000000 10.000000 
BN_SackDef04 0.000000 0.000000 0.000000 0.000000 0.000000 0.000000 10.000000 
BN_SackDef05 0.000000 0.000000 0.000000 0.000000 0.000000 0.000000 10.000000 
BN_SackDef06 0.000000 0.000000 0.000000 0.000000 0.000000 0.000000 10.000000 
#Beginning of Data. Separated by tabs
#Fr	Tx	Ty	Tz	Rx	Ry	Rz	SF
[BN_Tick_Root]
66 0.000000 0.000000 0.000000 0.000000 0.000000 -0.000020 0.000000
67 0.000000 0.000000 0.000000 0.000000 0.000000 -0.000020 0.000000
68 0.000000 0.000000 0.000000 0.000000 0.000000 -0.000020 0.000000
69 0.000000 0.000000 0.000000 0.000000 0.000000 -0.000020 0.000000
[BN_Torso]
66 14.834031 43.130928 203.531143 -22.434366 -3.714737 -5.423732 208.579117
67 14.834027 43.130928 203.531158 -22.434361 -3.714736 -5.423731 208.579147
68 14.833878 43.130928 203.531448 -22.434322 -3.714730 -5.423683 208.579407
69 12.427886 43.130928 208.114014 -21.847889 -3.634926 -4.655518 212.899445
[BN_L_Leg_Front01]
66 -68.477791 10.734189 -26.804373 -76.168633 46.936413 141.075989 74.316254
67 -68.477791 10.734189 -26.804373 -76.168633 46.936413 141.075989 74.316254
68 -68.477791 10.734189 -26.804373 -76.168465 46.936089 141.075989 74.316254
69 -68.477791 10.734189 -26.804373 -73.520302 41.465836 140.734741 74.316254
[BN_L_Leg_Rear01]
66 -72.133743 -73.994843 -18.268616 25.503004 64.642433 -155.352539 104.939293
67 -72.133743 -73.994843 -18.268616 25.503004 64.642433 -155.352539 104.939293
68 -72.133743 -73.994843 -18.268616 25.503004 64.642433 -155.352554 104.939293
69 -72.133743 -73.994843 -18.268616 25.595570 64.741798 -156.030472 104.939293
[BN_MetalTop]
66 0.000008 13.737477 26.403606 91.968262 -19.308939 -97.454803 29.763546
67 0.000008 13.737477 26.403606 92.236221 -15.990746 -97.351326 29.763546
68 0.000008 13.737477 26.403606 92.236938 -16.406542 -97.368729 29.763546
69 0.000008 13.737477 26.403606 92.249092 -17.173306 -97.398911 29.763546
[BN_Neck]
66 0.000014 95.233284 10.002091 -89.999672 -65.297531 89.999657 95.757088
67 0.000014 95.233284 10.002091 -89.999672 -65.297531 89.999657 95.757088
68 0.000014 95.233284 10.002091 -89.999672 -65.297531 89.999657 95.757088
69 0.000014 95.233284 10.002091 -89.999672 -65.297531 89.999657 95.757088
[BN_R_Leg_Front01]
66 68.477768 10.734107 -26.804314 72.490593 39.758694 61.465595 74.316193
67 68.477768 10.734107 -26.804314 72.490593 39.758694 61.465595 74.316193
68 68.477768 10.734107 -26.804314 72.490616 39.758793 61.465534 74.316193
69 68.477768 10.734107 -26.804314 72.650291 41.195518 60.311119 74.316193
[BN_R_Leg_Rear01]
66 72.133751 -73.994873 -18.268644 15.738785 71.487045 39.528728 104.939331
67 72.133751 -73.994873 -18.268644 15.738785 71.487045 39.528728 104.939331
68 72.133751 -73.994873 -18.268644 15.738740 71.487083 39.528652 104.939331
69 72.133751 -73.994873 -18.268644 15.067006 72.011795 38.358719 104.939331
[BN_Sack]
66 -0.000000 -78.024918 33.657791 91.379875 -11.014523 -97.199577 84.974907
67 -0.000000 -78.024918 33.657791 91.379875 -11.014523 -97.199577 84.974907
68 -0.000000 -78.024918 33.657791 91.379883 -11.014522 -97.199577 84.974907
69 -0.000000 -78.024918 33.657791 91.379875 -11.014523 -97.199577 84.974907
[BN_L_Leg_Front02]
66 142.805023 -0.000015 -0.000104 -0.150572 0.901783 -150.635529 142.805023
67 142.805023 -0.000015 -0.000104 -0.150572 0.901783 -150.635544 142.805023
68 142.805023 -0.000015 -0.000104 -0.150575 0.901786 -150.635788 142.805023
69 142.805023 -0.000015 -0.000104 -0.196110 0.944871 -154.611832 142.805023
[BN_L_Leg_Front03]
66 124.143021 -0.000045 0.000007 0.351281 -0.236457 148.416519 124.143021
67 124.143021 -0.000045 0.000007 0.351281 -0.236457 148.416519 124.143021
68 124.143021 -0.000045 0.000007 0.351281 -0.236456 148.416641 124.143021
69 124.143021 -0.000045 0.000007 0.351535 -0.221026 150.457214 124.143021
[BN_L_Leg_Rear02]
66 139.939041 0.000075 -0.000022 0.090879 -0.217837 91.260918 139.939041
67 139.939041 0.000075 -0.000022 0.090879 -0.217837 91.260918 139.939041
68 139.939041 0.000075 -0.000022 0.090880 -0.217837 91.260895 139.939041
69 139.939041 0.000075 -0.000022 0.093439 -0.215768 90.840828 139.939041
[BN_L_Leg_Rear03]
66 142.839615 0.000179 -0.000060 0.000394 -0.002314 -109.322990 142.839615
67 142.839615 0.000179 -0.000060 0.000394 -0.002314 -109.322990 142.839615
68 142.839615 0.000179 -0.000060 0.000394 -0.002314 -109.322968 142.839615
69 142.839615 0.000179 -0.000060 0.000384 -0.002316 -108.818176 142.839615
[BN_Head]
66 57.062447 -0.000030 0.000000 6.022650 1.748081 -10.580906 57.062447
67 57.062447 -0.000030 0.000000 13.293696 -5.873817 -12.089369 57.062447
68 57.062447 -0.000030 0.000000 12.544766 -5.163054 -11.935266 57.062447
69 57.062447 -0.000030 0.000000 11.127906 -4.072752 -11.096021 57.062447
[BN_Needle]
66 33.915161 69.677544 -0.000060 0.000003 0.000030 87.896805 77.493217
67 33.915161 69.677544 -0.000060 0.000003 0.000030 87.896805 77.493217
68 33.915161 69.677544 -0.000060 0.000003 0.000030 87.896805 77.493217
69 33.915161 69.677544 -0.000060 0.000003 0.000030 87.896805 77.493217
[BN_R_Leg_Front02]
66 142.804947 -0.000060 0.000060 -0.056589 0.637646 125.045464 142.804947
67 142.804947 -0.000060 0.000060 -0.056589 0.637646 125.045464 142.804947
68 142.804947 -0.000060 0.000060 -0.056590 0.637645 125.045341 142.804947
69 142.804947 -0.000060 0.000060 -0.068715 0.618956 123.161415 142.804947
[BN_R_Leg_Front03]
66 124.143005 -0.000060 -0.000156 -0.352128 -0.332133 -131.919601 124.143005
67 124.143005 -0.000060 -0.000156 -0.352128 -0.332133 -131.919601 124.143005
68 124.143005 -0.000060 -0.000156 -0.352128 -0.332133 -131.919510 124.143005
69 124.143005 -0.000060 -0.000156 -0.351661 -0.340635 -130.413086 124.143005
[BN_R_Leg_Rear02]
66 139.939011 -0.000149 0.000015 0.003152 -0.255016 -119.996056 139.939011
67 139.939011 -0.000149 0.000015 0.003152 -0.255016 -119.996056 139.939011
68 139.939011 -0.000149 0.000015 0.003151 -0.255015 -119.995918 139.939011
69 139.939011 -0.000149 0.000015 -0.004035 -0.250403 -118.101456 139.939011
[BN_R_Leg_Rear03]
66 142.839417 0.000075 0.000119 0.002149 -0.000945 137.485962 142.839417
67 142.839417 0.000075 0.000119 0.002149 -0.000945 137.485962 142.839417
68 142.839417 0.000075 0.000119 0.002149 -0.000945 137.485870 142.839417
69 142.839417 0.000075 0.000119 0.002161 -0.000917 135.981506 142.839417
[BN_SackDef01]
66 249.782272 -3.760844 42.949425 -128.408218 -44.374973 -11.740845 253.475800
67 249.782272 -3.760844 42.949425 -128.408218 -44.374973 -11.740845 253.475800
68 249.782272 -3.760844 42.949425 -128.408218 -44.374973 -11.740845 253.475800
69 249.782272 -3.760844 42.949425 -128.408218 -44.374973 -11.740845 253.475800
[BN_SackDef02]
66 138.789795 -62.131748 45.674385 32.077126 -27.375721 -88.781525 158.773758
67 138.789795 -62.131748 45.674385 32.077126 -27.375721 -88.781525 158.773758
68 138.789795 -62.131748 45.674385 32.077126 -27.375721 -88.781525 158.773758
69 138.789795 -62.131748 45.674385 32.077126 -27.375721 -88.781525 158.773758
[BN_SackDef03]
66 249.782272 -3.760785 -42.949661 18.144459 44.375008 -11.740894 253.475845
67 249.782272 -3.760785 -42.949661 18.144459 44.375008 -11.740894 253.475845
68 249.782272 -3.760785 -42.949661 18.144459 44.375008 -11.740894 253.475845
69 249.782272 -3.760785 -42.949661 18.144459 44.375008 -11.740894 253.475845
[BN_SackDef04]
66 138.789780 -62.131645 -45.674473 146.059982 27.375723 -88.781555 158.773743
67 138.789780 -62.131645 -45.674473 146.059982 27.375723 -88.781555 158.773743
68 138.789780 -62.131645 -45.674473 146.059982 27.375723 -88.781555 158.773743
69 138.789780 -62.131645 -45.674473 146.059982 27.375723 -88.781555 158.773743
[BN_SackDef05]
66 118.790161 46.167137 -63.831196 0.155741 51.314110 90.605110 142.537460
67 118.790161 46.167137 -63.831196 0.155741 51.314110 90.605110 142.537460
68 118.790161 46.167137 -63.831196 0.155741 51.314110 90.605110 142.537460
69 118.790161 46.167137 -63.831196 0.155741 51.314110 90.605110 142.537460
[BN_SackDef06]
66 118.790207 46.167194 63.831219 152.058487 -51.314072 90.605019 142.537537
67 118.790207 46.167194 63.831219 152.058487 -51.314072 90.605019 142.537537
68 118.790207 46.167194 63.831219 152.058487 -51.314072 90.605019 142.537537
69 118.790207 46.167194 63.831219 152.058487 -51.314072 90.605019 142.537537
